<mxfile host="app.diagrams.net" modified="2021-06-07T03:31:23.247Z" agent="5.0 (Macintosh; Intel Mac OS X 10_15_7) AppleWebKit/537.36 (KHTML, like Gecko) Chrome/89.0.4389.114 Safari/537.36" etag="7iolbD6MRQrbgWjryqE2" version="14.7.6" type="github">
  <diagram id="1E_1OY_teUpV2l7xYmd7" name="Page-1">
    <mxGraphModel dx="946" dy="614" grid="0" gridSize="10" guides="1" tooltips="1" connect="0" arrows="1" fold="1" page="0" pageScale="1" pageWidth="2336" pageHeight="1654" math="0" shadow="0">
      <root>
        <mxCell id="0" />
        <mxCell id="1" parent="0" />
        <mxCell id="ZarKhYPwP1LGD5Vha7ib-2" value="" style="rounded=0;whiteSpace=wrap;html=1;fillColor=#dae8fc;strokeColor=#6c8ebf;" parent="1" vertex="1">
          <mxGeometry x="150" y="170" width="200" height="120" as="geometry" />
        </mxCell>
        <mxCell id="ZarKhYPwP1LGD5Vha7ib-3" value="标签定义" style="rounded=1;whiteSpace=wrap;html=1;" parent="1" vertex="1">
          <mxGeometry x="215" y="210" width="70" height="30" as="geometry" />
        </mxCell>
        <mxCell id="ZarKhYPwP1LGD5Vha7ib-4" value="运营平台" style="text;html=1;strokeColor=none;fillColor=none;align=center;verticalAlign=middle;whiteSpace=wrap;rounded=0;" parent="1" vertex="1">
          <mxGeometry x="220" y="180" width="60" height="20" as="geometry" />
        </mxCell>
        <mxCell id="ZarKhYPwP1LGD5Vha7ib-6" value="标签管理" style="rounded=1;whiteSpace=wrap;html=1;" parent="1" vertex="1">
          <mxGeometry x="215" y="250" width="70" height="30" as="geometry" />
        </mxCell>
        <mxCell id="ZarKhYPwP1LGD5Vha7ib-7" value="" style="rounded=0;whiteSpace=wrap;html=1;fillColor=#d5e8d4;strokeColor=#82b366;" parent="1" vertex="1">
          <mxGeometry x="360" y="170" width="290" height="120" as="geometry" />
        </mxCell>
        <mxCell id="ZarKhYPwP1LGD5Vha7ib-8" value="标签中心" style="text;html=1;strokeColor=none;fillColor=none;align=center;verticalAlign=middle;whiteSpace=wrap;rounded=0;" parent="1" vertex="1">
          <mxGeometry x="471" y="180" width="96" height="20" as="geometry" />
        </mxCell>
        <mxCell id="ZarKhYPwP1LGD5Vha7ib-9" value="商家打标" style="rounded=1;whiteSpace=wrap;html=1;" parent="1" vertex="1">
          <mxGeometry x="384" y="210" width="70" height="30" as="geometry" />
        </mxCell>
        <mxCell id="ZarKhYPwP1LGD5Vha7ib-10" value="商品打标" style="rounded=1;whiteSpace=wrap;html=1;" parent="1" vertex="1">
          <mxGeometry x="470" y="210" width="70" height="30" as="geometry" />
        </mxCell>
        <mxCell id="ZarKhYPwP1LGD5Vha7ib-11" value="类目打标" style="rounded=1;whiteSpace=wrap;html=1;" parent="1" vertex="1">
          <mxGeometry x="560" y="210" width="70" height="30" as="geometry" />
        </mxCell>
        <mxCell id="ZarKhYPwP1LGD5Vha7ib-13" value="" style="rounded=0;whiteSpace=wrap;html=1;fillColor=#ffe6cc;strokeColor=#d79b00;" parent="1" vertex="1">
          <mxGeometry x="150" y="80" width="500" height="80" as="geometry" />
        </mxCell>
        <mxCell id="ZarKhYPwP1LGD5Vha7ib-14" value="标签业务" style="text;html=1;strokeColor=none;fillColor=none;align=center;verticalAlign=middle;whiteSpace=wrap;rounded=0;" parent="1" vertex="1">
          <mxGeometry x="374" y="90" width="80" height="20" as="geometry" />
        </mxCell>
        <mxCell id="ZarKhYPwP1LGD5Vha7ib-15" value="标签管理" style="rounded=1;whiteSpace=wrap;html=1;" parent="1" vertex="1">
          <mxGeometry x="280" y="110" width="70" height="30" as="geometry" />
        </mxCell>
        <mxCell id="ZarKhYPwP1LGD5Vha7ib-17" value="打标服务" style="rounded=1;whiteSpace=wrap;html=1;" parent="1" vertex="1">
          <mxGeometry x="465" y="110" width="70" height="30" as="geometry" />
        </mxCell>
        <mxCell id="ZarKhYPwP1LGD5Vha7ib-18" value="品牌打标" style="rounded=1;whiteSpace=wrap;html=1;dashed=1;strokeColor=#FF6666;strokeWidth=2;" parent="1" vertex="1">
          <mxGeometry x="384" y="250" width="70" height="30" as="geometry" />
        </mxCell>
        <mxCell id="ZarKhYPwP1LGD5Vha7ib-19" value="达人打标" style="rounded=1;whiteSpace=wrap;html=1;dashed=1;strokeWidth=2;strokeColor=#00FF00;" parent="1" vertex="1">
          <mxGeometry x="470" y="250" width="70" height="30" as="geometry" />
        </mxCell>
        <mxCell id="ZarKhYPwP1LGD5Vha7ib-20" value="用户打标" style="rounded=1;whiteSpace=wrap;html=1;dashed=1;strokeWidth=2;strokeColor=#00FF00;" parent="1" vertex="1">
          <mxGeometry x="560" y="250" width="70" height="30" as="geometry" />
        </mxCell>
        <mxCell id="ZarKhYPwP1LGD5Vha7ib-23" value="" style="rounded=0;whiteSpace=wrap;html=1;strokeWidth=1;fillColor=#f8cecc;strokeColor=#b85450;" parent="1" vertex="1">
          <mxGeometry x="150" y="300" width="500" height="160" as="geometry" />
        </mxCell>
        <mxCell id="ZarKhYPwP1LGD5Vha7ib-24" value="服务层" style="text;html=1;strokeColor=none;fillColor=none;align=center;verticalAlign=middle;whiteSpace=wrap;rounded=0;" parent="1" vertex="1">
          <mxGeometry x="394" y="310" width="40" height="20" as="geometry" />
        </mxCell>
        <mxCell id="ZarKhYPwP1LGD5Vha7ib-27" value="商家侧标签实体&lt;br&gt;关系服务" style="rounded=1;whiteSpace=wrap;html=1;strokeColor=#000000;strokeWidth=1;" parent="1" vertex="1">
          <mxGeometry x="170" y="340" width="130" height="40" as="geometry" />
        </mxCell>
        <mxCell id="ZarKhYPwP1LGD5Vha7ib-28" value="商品侧标签实体&lt;br&gt;关系服务" style="rounded=1;whiteSpace=wrap;html=1;strokeColor=#000000;strokeWidth=1;" parent="1" vertex="1">
          <mxGeometry x="349" y="340" width="130" height="40" as="geometry" />
        </mxCell>
        <mxCell id="ZarKhYPwP1LGD5Vha7ib-29" value="类目侧标签实体&lt;br&gt;关系服务" style="rounded=1;whiteSpace=wrap;html=1;strokeColor=#000000;strokeWidth=1;" parent="1" vertex="1">
          <mxGeometry x="510" y="340" width="130" height="40" as="geometry" />
        </mxCell>
        <mxCell id="ZarKhYPwP1LGD5Vha7ib-30" value="&lt;font face=&quot;helvetica&quot;&gt;品牌侧标签实体&lt;br&gt;关系服务&lt;br&gt;&lt;/font&gt;" style="rounded=1;whiteSpace=wrap;html=1;strokeWidth=2;strokeColor=#FF6666;dashed=1;" parent="1" vertex="1">
          <mxGeometry x="170" y="400" width="130" height="40" as="geometry" />
        </mxCell>
        <mxCell id="ZarKhYPwP1LGD5Vha7ib-31" value="" style="rounded=0;whiteSpace=wrap;html=1;strokeColor=#9673a6;strokeWidth=1;fillColor=#e1d5e7;" parent="1" vertex="1">
          <mxGeometry x="150" y="470" width="500" height="110" as="geometry" />
        </mxCell>
        <mxCell id="ZarKhYPwP1LGD5Vha7ib-32" value="用户侧标签实体&lt;br&gt;关系服务" style="rounded=1;whiteSpace=wrap;html=1;strokeWidth=2;dashed=1;strokeColor=#00FF00;" parent="1" vertex="1">
          <mxGeometry x="510" y="400" width="130" height="40" as="geometry" />
        </mxCell>
        <mxCell id="ZarKhYPwP1LGD5Vha7ib-33" value="业务存储层" style="text;html=1;strokeColor=none;fillColor=none;align=center;verticalAlign=middle;whiteSpace=wrap;rounded=0;dashed=1;" parent="1" vertex="1">
          <mxGeometry x="374" y="480" width="86" height="20" as="geometry" />
        </mxCell>
        <mxCell id="ZarKhYPwP1LGD5Vha7ib-36" value="标签数据" style="shape=cylinder3;whiteSpace=wrap;html=1;boundedLbl=1;backgroundOutline=1;size=15;strokeColor=#6c8ebf;strokeWidth=2;fillColor=#dae8fc;" parent="1" vertex="1">
          <mxGeometry x="180" y="510" width="70" height="60" as="geometry" />
        </mxCell>
        <mxCell id="ZarKhYPwP1LGD5Vha7ib-37" value="商家标签&lt;br&gt;实体数据" style="shape=cylinder3;whiteSpace=wrap;html=1;boundedLbl=1;backgroundOutline=1;size=15;strokeColor=#000000;strokeWidth=1;" parent="1" vertex="1">
          <mxGeometry x="270" y="510" width="70" height="60" as="geometry" />
        </mxCell>
        <mxCell id="ZarKhYPwP1LGD5Vha7ib-40" value="商品标签&lt;br&gt;实体数据" style="shape=cylinder3;whiteSpace=wrap;html=1;boundedLbl=1;backgroundOutline=1;size=15;strokeColor=#000000;strokeWidth=1;" parent="1" vertex="1">
          <mxGeometry x="360" y="510" width="70" height="60" as="geometry" />
        </mxCell>
        <mxCell id="ZarKhYPwP1LGD5Vha7ib-41" value="类目标签&lt;br&gt;实体数据" style="shape=cylinder3;whiteSpace=wrap;html=1;boundedLbl=1;backgroundOutline=1;size=15;strokeWidth=1;" parent="1" vertex="1">
          <mxGeometry x="454" y="510" width="70" height="60" as="geometry" />
        </mxCell>
        <mxCell id="ZarKhYPwP1LGD5Vha7ib-42" value="&lt;font style=&quot;font-size: 21px&quot;&gt;...&lt;/font&gt;" style="text;html=1;strokeColor=none;fillColor=none;align=center;verticalAlign=middle;whiteSpace=wrap;rounded=0;" parent="1" vertex="1">
          <mxGeometry x="610" y="550" width="40" height="20" as="geometry" />
        </mxCell>
        <mxCell id="ZarKhYPwP1LGD5Vha7ib-43" value="达人侧标签实体&lt;br&gt;关系服务" style="rounded=1;whiteSpace=wrap;html=1;strokeWidth=2;dashed=1;strokeColor=#00FF00;" parent="1" vertex="1">
          <mxGeometry x="349" y="400" width="130" height="40" as="geometry" />
        </mxCell>
        <mxCell id="ZarKhYPwP1LGD5Vha7ib-44" value="品牌标签&lt;br&gt;实体数据" style="shape=cylinder3;whiteSpace=wrap;html=1;boundedLbl=1;backgroundOutline=1;size=15;strokeWidth=2;strokeColor=#FF6666;dashed=1;" parent="1" vertex="1">
          <mxGeometry x="540" y="510" width="70" height="60" as="geometry" />
        </mxCell>
        <mxCell id="ZarKhYPwP1LGD5Vha7ib-49" value="" style="shape=image;verticalLabelPosition=bottom;labelBackgroundColor=#ffffff;verticalAlign=top;aspect=fixed;imageAspect=0;image=data:image/png,iVBORw0KGgoAAAANSUhEUgAAAOEAAADhCAMAAAAJbSJIAAAAyVBMVEX29vb/PQCQyvmKyPn7+Pb2+/z1//+Jx/n/KwD/OQD2/P3/MQD2+Pj/KAD29vf/NQCI0P/4yL75vrOMzv/s8fbS5vf27+z35uL+UCX5t6ri7fat1vju8/bF4PeZzvm62/ij0vj6q5z5xbv40sr27Oj+WTT7kXz33tf7m4n9cln+SRP9aUv6rZ79YkD419D9Xz37opL8hnH8dlvaeHiyp8GostKcveTsXUnRhIz7jnr+Sx7qyMfhbmeuq8j3SybNiZPvVz+/mazia2K4cbT8AAAHhElEQVR4nO2be1faTBCHQ24k2U0iCAIJV7EieKna1rb2/n7/D/VuQCXAbG7aZNIzzz+tbeLZ35nZndtGUQiCIAiCIAiCIAiCIAiCIAiCIAiCIAiCIAiCIAiCIAiC+Ct4XGAYRvSHV/Vi3hzOHYcri3mr3W635gsl+pFXvai3gxvOSetiuXJda4PrrpYXrRPH+CdEeobZm10yi/l2Y4vti3+5nPVMo+7+yg3eWlosLi4mk1nLFq+3IQ0+6Ls+KG+D7/YH3Kh6mYXh5mnfgs0XM6TVPzVrakant3TT9K01usueU/ViC8DNgZXknzu+ygb1MyPn925GfRHufd3Co3G2YjkENhpsdVarA8dZ+Fl2YBzbXtRoMzpzSQRMlMjmtZFo3BQQGElc1MRRea9RRGDkqL1aHDee0s8aJfbx+0od0lTnPt8pGofd12ArOld54uA+7hV6ibxnvUJgo2Gh34rm+6KbcIN/bVYtIRlj8BofjXDbqEMG50mBIirsLdfaK/f3H2qgLomdmXwX+lZjOWvPF/P2bNlIKDusGeLDhhtSE/rW8lQx161EwzCV06VUozAi3qBotGUmtK5vzJj3ccO8uZY+i3gnmu8lLSfhefubiwuPljz9Hu1xyhfwQWr7c+fQ8TxpBeIusJ41xi2Yr0lrBmMBS2S3WN3UfAcu2L2RLdiYg0a33yF1U94DTZh0+pu34HHDkKZuxim03GSDwGa3TnG6qXMB2dCdJ9mDg37KLnAGffMSsId9mbynzOsCL1WF8wgsNi18g0mC/YjSS70zKA+zlORDgyvg5j3DmLiBta9/mbajHMi3cdbB/AY4NNh5qsJz4Hxyb1AqbAE2ZIO0HWUMAIVWqzYK0yMbGEVJYTWA+7CgQpzVBZiWFtyHOBNTrgAtDD/9LP16GEbtRkoUrQiowrevUxUCaRvWKh+ObCfJ2Yl3UiiKVgOYYqZtRDgcIu1FeWfAYtPqdbBAZCjTUkVSCbmtJHsYLcBJbbSzC+MKMuIq4aoMN1eQCa9wOqlsssbO5RYxv0JtAZyVxRrQTRtuW3YyOm2oh4HXSaODEWydWS1YogNlsuLx1DyoOrgCt4StNrAXudmG2/oMZ0KzAUrB1o56ruwNlDxDOYdnAFjD/QbZ5KLBHttGbDjDHaP9KLmygbOueMG8lIwFbas/65mOEeGYvZn0aq2PtJP4DNzh3WhkrH93e9W+ur3rM/m1sOQOMgIk05knkT5jFkse47/DvAsjDDDEZQf5VYwIp1/s2t6TCfvYTSiN+hnBHO2f4RwaX2Q14WMdrnvLL2RkMCH+XahE2crPoka0fyK+ShPDOC16nLpIZ78HQO2zTCZMbcxhISGxSTYh9nRmi3lf5JKpf487I41T7KIw4ubFISbUHE4hqZ+DD67Y+b8KwlzaH5I/d6tDvrZDYhUFmRDrXTYp4Lw0AZx3ExIx7/IcNuyubiaMxmY5PkG0/ZQhHEqcHJ9euIO65Gs7ONeZv3RG3MdPgi+yRgwLd4tUjnORTaKF9DppOpxn6krZ/Tq0Lg7QBcrwWxYjWt+Gm8drg1jsMOhOwvFYO/qQftj4H4608TScdINhDWSuxY3CsdbUNE2NgKbYuz66Wj8nnm9q43CEWqaud7qTtTj1heOPaZkN+3i8fXwtc9LtIBQplhSpi4vbcPQ92U/970f7r4jfIlQqqFQKeaF6qG5Dspva8Evil4VCZNXCNuh6EALG2/pp0nlqxX30wJRhgMCQujdSm1J5aX4K+OiOyKY68qrVqHcmcuu9IP2w1G6kvqtpk051GvXhJNl8G45/SL8W/SH10bghJ8OKNOqjDPaLkMV9Eeszva9poyok6sE4m74IcFZj/8z8vjYOStcoDJh5ferxJyjus08ZfPRFY9lm1MNm9tUJP/11KJH9yuajTzTDciVOc1gw4vj3vp/av3MJFFaclqhPD3MKVI8f9g8b/yGHj24klmdFfZTLRdcc/dn1U/YnpwkFzdL24jCvBdcS/4tbMSWZkaANyxGoT4oo3EltnorC3AonJRmx0OpEyNimNlaeQBGnHIFB/l24ZhsycgaKLc2gFIXdYk4qJH7e+Kn9uaBAVeviVqg+rOemtv1Q9BeUpLColz5XGZkqCpiSvFQpbEP16AtrsC9FfVTYsByB+TOamMTPrPAmLDGr6RR2U7EVV4U3oXDSTjkC81VOexyrhTdhmRWUnre0eBO0aZn1UwUSS62eqpBYtkCRfr/iuClAs6ykOyYxUMszo6aW34mKhhWZuqVvoa85qWiEoXfCEjRqzbDKrnfwtzUKfVU4aFxjpslFYX2VTi1eNCrd6V8RqWlTLCNEXR+OpgkjxELqtOloiGB6+IIQmTAGzi1PDbuo5G0QKwpGodp8lUxNa6rhKMA1xI8jFtbpTqZqM7/PRtdN1Omk28Gr7hld171OdzSZjrVmpDRZavSAeGw8nYzW4rCr2xKt1esEQmk4HYuoFqFt2fysRnehRt2g49VK2w7604U1b9gJgqD7jPh7Z+jF/v8f4p8TRBAEQRAEQRAEQRAEQRAEQRAEQRAEQRAEQRAEQRAEQRDI+B+nuY6tUPP/RAAAAABJRU5ErkJggg==;" parent="1" vertex="1">
          <mxGeometry x="300" y="180" width="30" height="30" as="geometry" />
        </mxCell>
      </root>
    </mxGraphModel>
  </diagram>
</mxfile>
